<mxfile host="65bd71144e">
    <diagram id="st1U5KWX3yvC84rb_WdJ" name="Page-1">
        <mxGraphModel dx="1480" dy="1129" grid="1" gridSize="10" guides="1" tooltips="1" connect="1" arrows="1" fold="1" page="1" pageScale="1" pageWidth="827" pageHeight="1169" math="0" shadow="0">
            <root>
                <mxCell id="0"/>
                <mxCell id="1" parent="0"/>
                <mxCell id="3" value="&lt;font style=&quot;font-size: 24px&quot;&gt;启动&lt;/font&gt;" style="rounded=1;whiteSpace=wrap;html=1;strokeWidth=2;fillWeight=4;hachureGap=8;hachureAngle=45;fillColor=#1ba1e2;sketch=1;" vertex="1" parent="1">
                    <mxGeometry x="10" y="440" width="130" height="60" as="geometry"/>
                </mxCell>
                <mxCell id="14" value="HTTP" style="swimlane;fontSize=24;startSize=30;" vertex="1" parent="1">
                    <mxGeometry x="240" width="160" height="320" as="geometry">
                        <mxRectangle x="200" y="120" width="100" height="30" as="alternateBounds"/>
                    </mxGeometry>
                </mxCell>
                <mxCell id="15" value="账户信息" style="rounded=1;whiteSpace=wrap;html=1;strokeWidth=2;fillWeight=4;hachureGap=8;hachureAngle=45;fillColor=#60a917;sketch=1;fontSize=24;fontColor=#ffffff;strokeColor=#2D7600;" vertex="1" parent="14">
                    <mxGeometry x="20" y="40" width="120" height="60" as="geometry"/>
                </mxCell>
                <mxCell id="16" value="订单信息" style="rounded=1;whiteSpace=wrap;html=1;strokeWidth=2;fillWeight=4;hachureGap=8;hachureAngle=45;fillColor=#60a917;sketch=1;fontSize=24;fontColor=#ffffff;strokeColor=#2D7600;" vertex="1" parent="14">
                    <mxGeometry x="20" y="110" width="120" height="60" as="geometry"/>
                </mxCell>
                <mxCell id="18" value="" style="edgeStyle=elbowEdgeStyle;elbow=vertical;endArrow=classic;html=1;fontSize=24;exitX=0.5;exitY=0;exitDx=0;exitDy=0;entryX=0;entryY=0.5;entryDx=0;entryDy=0;" edge="1" parent="1" source="3" target="14">
                    <mxGeometry width="50" height="50" relative="1" as="geometry">
                        <mxPoint x="380" y="330" as="sourcePoint"/>
                        <mxPoint x="120" y="170" as="targetPoint"/>
                        <Array as="points">
                            <mxPoint x="80" y="160"/>
                        </Array>
                    </mxGeometry>
                </mxCell>
                <mxCell id="19" value="Websocket" style="swimlane;fontSize=24;startSize=30;" vertex="1" parent="1">
                    <mxGeometry x="240" y="360" width="240" height="360" as="geometry"/>
                </mxCell>
                <mxCell id="25" value="账户信息推送" style="rounded=1;whiteSpace=wrap;html=1;strokeWidth=2;fillWeight=4;hachureGap=8;hachureAngle=45;fillColor=#6a00ff;sketch=1;fontSize=24;fontColor=#ffffff;strokeColor=#3700CC;" vertex="1" parent="19">
                    <mxGeometry x="20" y="40" width="200" height="60" as="geometry"/>
                </mxCell>
                <mxCell id="24" value="交易对深度信息" style="rounded=1;whiteSpace=wrap;html=1;strokeWidth=2;fillWeight=4;hachureGap=8;hachureAngle=45;fillColor=#6a00ff;sketch=1;fontSize=24;fontColor=#ffffff;strokeColor=#3700CC;" vertex="1" parent="19">
                    <mxGeometry x="20" y="150" width="200" height="60" as="geometry"/>
                </mxCell>
                <mxCell id="21" value="" style="edgeStyle=elbowEdgeStyle;elbow=vertical;endArrow=classic;html=1;fontSize=24;exitX=0.5;exitY=1;exitDx=0;exitDy=0;entryX=0;entryY=0.5;entryDx=0;entryDy=0;" edge="1" parent="1" source="3" target="19">
                    <mxGeometry width="50" height="50" relative="1" as="geometry">
                        <mxPoint x="70" y="600" as="sourcePoint"/>
                        <mxPoint x="200" y="540" as="targetPoint"/>
                        <Array as="points">
                            <mxPoint x="75" y="540"/>
                            <mxPoint x="90" y="560"/>
                        </Array>
                    </mxGeometry>
                </mxCell>
                <mxCell id="26" value="订单信息" style="swimlane;fontSize=24;startSize=30;" vertex="1" parent="1">
                    <mxGeometry x="1100" y="280" width="200" height="200" as="geometry"/>
                </mxCell>
                <mxCell id="27" value="账户信息" style="swimlane;fontSize=24;startSize=40;" vertex="1" parent="1">
                    <mxGeometry x="1020" y="10" width="200" height="200" as="geometry"/>
                </mxCell>
                <mxCell id="31" value="" style="edgeStyle=segmentEdgeStyle;endArrow=classic;html=1;fontSize=24;exitX=1;exitY=0.5;exitDx=0;exitDy=0;entryX=0;entryY=0.5;entryDx=0;entryDy=0;" edge="1" parent="1" source="16" target="26">
                    <mxGeometry width="50" height="50" relative="1" as="geometry">
                        <mxPoint x="430" y="300" as="sourcePoint"/>
                        <mxPoint x="900" y="360" as="targetPoint"/>
                        <Array as="points">
                            <mxPoint x="600" y="140"/>
                            <mxPoint x="600" y="380"/>
                        </Array>
                    </mxGeometry>
                </mxCell>
                <mxCell id="33" value="" style="edgeStyle=segmentEdgeStyle;endArrow=classic;html=1;fontSize=24;exitX=1;exitY=0.5;exitDx=0;exitDy=0;entryX=0;entryY=0.5;entryDx=0;entryDy=0;" edge="1" parent="1" source="15" target="27">
                    <mxGeometry width="50" height="50" relative="1" as="geometry">
                        <mxPoint x="440" y="300" as="sourcePoint"/>
                        <mxPoint x="710" y="120" as="targetPoint"/>
                        <Array as="points">
                            <mxPoint x="630" y="70"/>
                            <mxPoint x="630" y="110"/>
                        </Array>
                    </mxGeometry>
                </mxCell>
                <mxCell id="34" value="" style="edgeStyle=segmentEdgeStyle;endArrow=classic;html=1;fontSize=24;exitX=1;exitY=0.5;exitDx=0;exitDy=0;" edge="1" parent="1" source="25">
                    <mxGeometry width="50" height="50" relative="1" as="geometry">
                        <mxPoint x="650" y="540" as="sourcePoint"/>
                        <mxPoint x="1020" y="150" as="targetPoint"/>
                        <Array as="points">
                            <mxPoint x="670" y="430"/>
                            <mxPoint x="670" y="150"/>
                        </Array>
                    </mxGeometry>
                </mxCell>
                <mxCell id="35" value="" style="edgeStyle=segmentEdgeStyle;endArrow=classic;html=1;fontSize=24;exitX=1;exitY=0.5;exitDx=0;exitDy=0;entryX=0;entryY=0.75;entryDx=0;entryDy=0;" edge="1" parent="1" source="25" target="26">
                    <mxGeometry width="50" height="50" relative="1" as="geometry">
                        <mxPoint x="650" y="540" as="sourcePoint"/>
                        <mxPoint x="1010" y="430" as="targetPoint"/>
                        <Array as="points">
                            <mxPoint x="920" y="430"/>
                            <mxPoint x="920" y="430"/>
                        </Array>
                    </mxGeometry>
                </mxCell>
            </root>
        </mxGraphModel>
    </diagram>
</mxfile>